<?xml version="1.0" encoding="UTF-8"?><svg id="Camada_2" xmlns="http://www.w3.org/2000/svg" viewBox="0 0 500 500"><defs><style>.cls-1{fill:#238662;}.cls-2{fill:#fff;}.cls-3{fill:#252525;}</style></defs><g id="Camada_2-2"><g><rect class="cls-2" width="500" height="500" rx="13.56" ry="13.56"/><path class="cls-3" d="M423.7,130.08C365.3,46.29,270.02,28.96,210.4,43.75v40.16c42.28-8.81,82.55-4.5,120.3,15.91,38.09,20.59,64.75,51.49,79.6,92.21,24.52,67.26,1.85,137.89-37.73,175.4-2-1.27-4-2.55-6.4-4.08v39.66h39.63c-1.63-2.47-2.83-4.29-3.98-6.03,75.16-79.82,74.52-191.4,21.88-266.91Z"/><path class="cls-3" d="M80.11,261.7c-2.76-45.33,28-128.14,47.4-128.93,2.08,1.22,4.15,2.44,6.32,3.72v-39.5h-39.46c1.35,2.39,2.53,4.48,3.72,6.57-1.97,2.17-3.55,3.89-5.1,5.63C-4.75,218.46,35.39,391.05,171.36,445.93c35.24,14.22,71.82,18.18,109.35,12.71,3.27-.48,8.65-3.39,8.8-5.48,.85-11.86,.41-23.82,.41-36.65-100.79,24.98-203.36-48.86-209.82-154.8Z"/><path class="cls-1" d="M249.86,116.31c-73.97,.04-133.5,59.66-133.5,133.7,0,74,59.59,133.66,133.52,133.68,73.76,.02,133.78-59.98,133.76-133.71-.01-73.76-60.01-133.71-133.78-133.67Z"/><path class="cls-2" d="M261.39,290.67c-1.46,1.52-2.96,3-4.45,4.48-8.12,8.08-16.15,16.25-24.39,24.2-5.52,5.33-12.32,8.21-19.91,9.25-.5,.07-.99,.21-1.49,.32h-6.17c-.55-.1-1.1-.22-1.66-.31-14.39-2.26-24.45-10.07-29.8-23.64-1.24-3.15-1.66-6.63-2.46-9.96v-5.86c.64-2.89,1.09-5.85,1.96-8.67,1.76-5.69,4.97-10.55,9.18-14.76,10.93-10.94,21.81-21.93,32.8-32.8,12.55-12.42,30.7-14.66,45.54-5.66,3.37,2.05,6.69,4.31,8.64,7.93,2.28,4.23,1.29,9.55-2.2,12.5-3.89,3.29-9.45,3.49-13.37,.48-.57-.44-1.12-.9-1.66-1.37-6.01-5.3-14.96-5.32-20.97-.02-.92,.81-1.78,1.7-2.65,2.57-10.43,10.42-20.87,20.83-31.28,31.27-5.67,5.69-6.54,14.1-2.2,20.41,5.65,8.21,17.15,9.2,24.41,2.03,6.21-6.14,12.35-12.35,18.52-18.53,.33-.33,.66-.65,.98-.98,.89-.89,1.94-1.13,3.11-.68,5.67,2.18,11.53,3.26,17.61,3.22,1.17,0,2.08,.5,2.57,1.62,.5,1.14,.14,2.13-.66,2.96Zm67.54-79.83c-.58,2.7-.99,5.44-1.76,8.08-1.67,5.67-4.68,10.6-8.85,14.78-11.54,11.57-22.97,23.25-34.71,34.61-13.38,12.94-36.44,13.6-50.76-.57-4.13-4.09-4.44-10.32-.69-14.6,3.58-4.09,10.03-4.59,14.49-1.01,2.29,1.84,4.51,3.69,7.46,4.45,5.65,1.45,10.73,.45,15.03-3.51,3.47-3.2,6.74-6.62,10.09-9.96,7.89-7.88,15.81-15.73,23.66-23.65,7.6-7.67,6.05-19.93-3.11-25.17-6.11-3.49-13.9-2.39-19.14,2.79-6.21,6.14-12.41,12.29-18.52,18.54-1.59,1.62-3.05,2.05-5.19,1.2-5.16-2.07-10.58-2.88-16.12-2.87-1.29,0-2.32-.41-2.87-1.65-.56-1.28-.04-2.3,.85-3.19,9.51-9.46,18.93-19,28.55-28.34,5.62-5.46,12.56-8.41,20.33-9.39,.4-.05,.78-.2,1.17-.3h6.47c.49,.11,.98,.25,1.48,.33,14.61,2.35,24.67,10.4,29.91,24.24,1.12,2.97,1.5,6.23,2.22,9.35v5.86Z"/></g></g></svg>